<svg xmlns="http://www.w3.org/2000/svg" width="22" height="22" viewBox="0 0 22 22">
  <g id="ico_password" transform="translate(0.042 -0.131)">
    <g id="Layer_3" data-name="Layer 3" transform="translate(0 0.172)">
      <rect id="Rechteck_831" data-name="Rechteck 831" width="22" height="22" transform="translate(-0.042 -0.042)" fill="#131220" opacity="0"/>
    </g>
    <g id="Layer_2" data-name="Layer 2" transform="translate(3.653 1.841)">
      <path id="Pfad_659" data-name="Pfad 659" d="M16.785,9.306H8.109V6.566a3.2,3.2,0,0,1,6.392,0v.913h1.37V6.566a4.566,4.566,0,0,0-9.132,0v2.74H5.826A1.826,1.826,0,0,0,4,11.132v7.306a1.826,1.826,0,0,0,1.826,1.826H16.785a1.826,1.826,0,0,0,1.826-1.826V11.132A1.826,1.826,0,0,0,16.785,9.306Zm.457,9.132a.457.457,0,0,1-.457.457H5.826a.457.457,0,0,1-.457-.457V11.132a.457.457,0,0,1,.457-.457H16.785a.457.457,0,0,1,.457.457Z" transform="translate(-4 -2)" fill="#131220"/>
    </g>
  </g>
</svg>
