<svg id="ico_meter" xmlns="http://www.w3.org/2000/svg" width="70" height="70" viewBox="0 0 70 70">
  <path id="Pfad_46494" data-name="Pfad 46494" d="M59.609,0H10.391A6.159,6.159,0,0,0,4.238,6.152V16.406H2.051a2.051,2.051,0,0,0,0,4.1H4.238V43.066a2.051,2.051,0,0,0,2.051,2.051H8.34v18.73A6.159,6.159,0,0,0,14.492,70H55.508a6.159,6.159,0,0,0,6.152-6.152V45.117h2.051a2.051,2.051,0,0,0,2.051-2.051V20.508h2.188a2.051,2.051,0,0,0,0-4.1H65.762V6.152A6.159,6.159,0,0,0,59.609,0ZM57.559,63.848A2.053,2.053,0,0,1,55.508,65.9H14.492a2.053,2.053,0,0,1-2.051-2.051V45.117h4.1V59.746A2.051,2.051,0,0,0,18.594,61.8H51.406a2.051,2.051,0,0,0,2.051-2.051V45.117h4.1ZM24.746,45.117V51.27a2.051,2.051,0,0,0,4.1,0V45.117h4.1V51.27a2.051,2.051,0,0,0,4.1,0V45.117h4.1V51.27a2.051,2.051,0,0,0,4.1,0V45.117h4.1V57.7H20.645V45.117Zm36.914-4.1H8.34V6.152A2.053,2.053,0,0,1,10.391,4.1H59.609A2.053,2.053,0,0,1,61.66,6.152Z" fill="#0e1823"/>
  <ellipse id="Ellipse_9" data-name="Ellipse 9" cx="2" cy="2.5" rx="2" ry="2.5" transform="translate(25 28)" fill="#17c0d4"/>
  <ellipse id="Ellipse_10" data-name="Ellipse 10" cx="2" cy="2.5" rx="2" ry="2.5" transform="translate(33 28)" fill="#17c0d4"/>
  <ellipse id="Ellipse_11" data-name="Ellipse 11" cx="2" cy="2.5" rx="2" ry="2.5" transform="translate(41 28)" fill="#17c0d4"/>
  <ellipse id="Ellipse_12" data-name="Ellipse 12" cx="2" cy="2.5" rx="2" ry="2.5" transform="translate(49 28)" fill="#17c0d4"/>
  <ellipse id="Ellipse_13" data-name="Ellipse 13" cx="2" cy="2.5" rx="2" ry="2.5" transform="translate(17 28)" fill="#17c0d4"/>
  <path id="Pfad_46495" data-name="Pfad 46495" d="M127.914,92.051A2.051,2.051,0,0,0,125.863,90H93.051A2.051,2.051,0,0,0,91,92.051v8.2a2.051,2.051,0,0,0,2.051,2.051h32.813a2.051,2.051,0,0,0,2.051-2.051ZM111.508,94.1h4.1v4.1h-4.1Zm-4.1,4.1h-4.1V94.1h4.1ZM95.1,94.1h4.1v4.1H95.1Zm28.711,4.1h-4.1V94.1h4.1Z" transform="translate(-78.559 -77.695)" fill="#17c0d4"/>
  <path id="Pfad_46496" data-name="Pfad 46496" d="M393.051,90A2.051,2.051,0,0,0,391,92.051v8.2a2.051,2.051,0,1,0,4.1,0v-8.2A2.051,2.051,0,0,0,393.051,90Z" transform="translate(-337.543 -77.695)" fill="#17c0d4"/>
</svg>
