<svg id="ico_mail" xmlns="http://www.w3.org/2000/svg" width="21.3" height="16.266" viewBox="0 0 21.3 16.266">
  <path id="Pfad_808" data-name="Pfad 808" d="M20.468,70.11a.832.832,0,0,0,.832-.832v-5.45A3.332,3.332,0,0,0,17.972,60.5H3.328A3.332,3.332,0,0,0,0,63.828v9.61a3.332,3.332,0,0,0,3.328,3.328H17.972A3.332,3.332,0,0,0,21.3,73.438a.832.832,0,0,0-1.664,0A1.666,1.666,0,0,1,17.972,75.1H3.328a1.666,1.666,0,0,1-1.664-1.664V64L8.893,68.5a3.308,3.308,0,0,0,3.515,0L19.636,64v5.273A.832.832,0,0,0,20.468,70.11Zm-8.939-3.024a1.654,1.654,0,0,1-1.757,0l-7.413-4.61a1.655,1.655,0,0,1,.97-.313H17.972a1.655,1.655,0,0,1,.97.313Z" transform="translate(0 -60.5)" fill="#131220"/>
</svg>
